# xmcd
#
# Track frame offsets: 
#        150
#        17310
#        31325
#        48337
#        63675
#        78767
#        98120
#        118575
#        135007
#        149637
#        167832
#
# Disc length: 2421 seconds
#
# Revision: 4
# Processed by: cddbd v1.5PL3 Copyright (c) Steve Scherf et al.
# Submitted via: ExactAudioCopy v0.95a3
#
DISCID=8609730b
DTITLE=Joe Diffie - Honkytonk Attitude
DYEAR=1993
DGENRE=Country
TTITLE0=Honkytonk Attitude
TTITLE1=I'm Not Through Losin' You
TTITLE2=Prop Me Up Beside The Jukebox
TTITLE3=If I Had Any Pride Left At All
TTITLE4=I Can Walk The Line If It Ain't Too Straight
TTITLE5=Somewhere Under The Rainbow
TTITLE6=John Deere Green
TTITLE7=In My Own Backyard
TTITLE8=Here Comes The Train
TTITLE9=And That Was The Easy Part
TTITLE10=Cold Budweiser And A Sweet Tater
EXTD=
EXTT0=By Joe Diffie and Lee Bogan\n
EXTT1=By Chris Waters Lonnie Wilson and Joe \nDiffie\n
EXTT2=Rick Blaylock and Kerry Kurt Phillips and\nHoward Perdew\n
EXTT3=By Troy Seals and Eddie Setser and\nJohn Greenbaum\n
EXTT4=Kerry Kurt Phillips and Randy Boudreaux\n
EXTT5=Jerry Laseter and Kerry Kurt Phillips and\nScott Blackwell\n
EXTT6=By Dennis Linde\n
EXTT7=By Andy Spooner and Kerry Kurt Phillips \nand Joe Diffie\n
EXTT8=L. David Lewis\n
EXTT9=By Wendell Mobley and John Jarrard\n
EXTT10=By Teddy Gentry and Greg Fowler and \nRonnie Rogers\n
PLAYORDER=
